<svg id="visual" viewBox="0 0 900 600" width="900" height="600" xmlns="http://www.w3.org/2000/svg" xmlns:xlink="http://www.w3.org/1999/xlink" version="1.1"><rect x="0" y="0" width="900" height="600" fill="#FFFFFF"></rect><defs><linearGradient id="grad1_0" x1="33.3%" y1="0%" x2="100%" y2="100%"><stop offset="20%" stop-color="#54ff73" stop-opacity="1"></stop><stop offset="80%" stop-color="#54ff73" stop-opacity="1"></stop></linearGradient></defs><defs><linearGradient id="grad1_1" x1="33.3%" y1="0%" x2="100%" y2="100%"><stop offset="20%" stop-color="#54ff73" stop-opacity="1"></stop><stop offset="80%" stop-color="#ffffff" stop-opacity="1"></stop></linearGradient></defs><defs><linearGradient id="grad2_0" x1="0%" y1="0%" x2="66.7%" y2="100%"><stop offset="20%" stop-color="#54ff73" stop-opacity="1"></stop><stop offset="80%" stop-color="#54ff73" stop-opacity="1"></stop></linearGradient></defs><defs><linearGradient id="grad2_1" x1="0%" y1="0%" x2="66.7%" y2="100%"><stop offset="20%" stop-color="#ffffff" stop-opacity="1"></stop><stop offset="80%" stop-color="#54ff73" stop-opacity="1"></stop></linearGradient></defs><g transform="translate(900, 0)"><path d="M0 432.7C-78.2 422.8 -156.5 413 -216.3 374.7C-276.2 336.4 -317.7 269.7 -350.7 202.5C-383.7 135.3 -408.2 67.7 -432.7 0L0 0Z" fill="#b9ffba"></path><path d="M0 216.3C-39.1 211.4 -78.2 206.5 -108.2 187.3C-138.1 168.2 -158.9 134.8 -175.4 101.3C-191.9 67.7 -204.1 33.8 -216.3 0L0 0Z" fill="#54ff73"></path></g><g transform="translate(0, 600)"><path d="M0 -432.7C62.9 -399.9 125.7 -367.1 193.5 -335.2C261.3 -303.2 334 -272.1 374.7 -216.3C415.4 -160.6 424 -80.3 432.7 0L0 0Z" fill="#b9ffba"></path><path d="M0 -216.3C31.4 -199.9 62.9 -183.6 96.7 -167.6C130.6 -151.6 167 -136 187.3 -108.2C207.7 -80.3 212 -40.2 216.3 0L0 0Z" fill="#54ff73"></path></g></svg>