<svg id="visual" viewBox="0 0 900 600" width="900" height="600" xmlns="http://www.w3.org/2000/svg" xmlns:xlink="http://www.w3.org/1999/xlink" version="1.1"><path d="M0 61L13.7 77C27.3 93 54.7 125 82 136C109.3 147 136.7 137 163.8 138C191 139 218 151 245.2 149C272.3 147 299.7 131 327 118C354.3 105 381.7 95 409 93C436.3 91 463.7 97 491 108C518.3 119 545.7 135 573 137C600.3 139 627.7 127 654.8 127C682 127 709 139 736.2 137C763.3 135 790.7 119 818 117C845.3 115 872.7 127 886.3 133L900 139L900 0L886.3 0C872.7 0 845.3 0 818 0C790.7 0 763.3 0 736.2 0C709 0 682 0 654.8 0C627.7 0 600.3 0 573 0C545.7 0 518.3 0 491 0C463.7 0 436.3 0 409 0C381.7 0 354.3 0 327 0C299.7 0 272.3 0 245.2 0C218 0 191 0 163.8 0C136.7 0 109.3 0 82 0C54.7 0 27.3 0 13.7 0L0 0Z" fill="#9dd7b7"></path><path d="M0 265L13.7 279C27.3 293 54.7 321 82 332C109.3 343 136.7 337 163.8 322C191 307 218 283 245.2 282C272.3 281 299.7 303 327 321C354.3 339 381.7 353 409 365C436.3 377 463.7 387 491 377C518.3 367 545.7 337 573 309C600.3 281 627.7 255 654.8 260C682 265 709 301 736.2 308C763.3 315 790.7 293 818 281C845.3 269 872.7 267 886.3 266L900 265L900 137L886.3 131C872.7 125 845.3 113 818 115C790.7 117 763.3 133 736.2 135C709 137 682 125 654.8 125C627.7 125 600.3 137 573 135C545.7 133 518.3 117 491 106C463.7 95 436.3 89 409 91C381.7 93 354.3 103 327 116C299.7 129 272.3 145 245.2 147C218 149 191 137 163.8 136C136.7 135 109.3 145 82 134C54.7 123 27.3 91 13.7 75L0 59Z" fill="#87cea7"></path><path d="M0 361L13.7 367C27.3 373 54.7 385 82 397C109.3 409 136.7 421 163.8 408C191 395 218 357 245.2 355C272.3 353 299.7 387 327 403C354.3 419 381.7 417 409 420C436.3 423 463.7 431 491 423C518.3 415 545.7 391 573 368C600.3 345 627.7 323 654.8 330C682 337 709 373 736.2 380C763.3 387 790.7 365 818 355C845.3 345 872.7 347 886.3 348L900 349L900 263L886.3 264C872.7 265 845.3 267 818 279C790.7 291 763.3 313 736.2 306C709 299 682 263 654.8 258C627.7 253 600.3 279 573 307C545.7 335 518.3 365 491 375C463.7 385 436.3 375 409 363C381.7 351 354.3 337 327 319C299.7 301 272.3 279 245.2 280C218 281 191 305 163.8 320C136.7 335 109.3 341 82 330C54.7 319 27.3 291 13.7 277L0 263Z" fill="#6fc598"></path><path d="M0 421L13.7 429C27.3 437 54.7 453 82 468C109.3 483 136.7 497 163.8 480C191 463 218 415 245.2 419C272.3 423 299.7 479 327 503C354.3 527 381.7 519 409 512C436.3 505 463.7 499 491 484C518.3 469 545.7 445 573 421C600.3 397 627.7 373 654.8 382C682 391 709 433 736.2 447C763.3 461 790.7 447 818 438C845.3 429 872.7 425 886.3 423L900 421L900 347L886.3 346C872.7 345 845.3 343 818 353C790.7 363 763.3 385 736.2 378C709 371 682 335 654.8 328C627.7 321 600.3 343 573 366C545.7 389 518.3 413 491 421C463.7 429 436.3 421 409 418C381.7 415 354.3 417 327 401C299.7 385 272.3 351 245.2 353C218 355 191 393 163.8 406C136.7 419 109.3 407 82 395C54.7 383 27.3 371 13.7 365L0 359Z" fill="#5fab83"></path><path d="M0 601L13.7 601C27.3 601 54.7 601 82 601C109.3 601 136.7 601 163.8 601C191 601 218 601 245.2 601C272.3 601 299.7 601 327 601C354.3 601 381.7 601 409 601C436.3 601 463.7 601 491 601C518.3 601 545.7 601 573 601C600.3 601 627.7 601 654.8 601C682 601 709 601 736.2 601C763.3 601 790.7 601 818 601C845.3 601 872.7 601 886.3 601L900 601L900 419L886.3 421C872.7 423 845.3 427 818 436C790.7 445 763.3 459 736.2 445C709 431 682 389 654.8 380C627.7 371 600.3 395 573 419C545.7 443 518.3 467 491 482C463.7 497 436.3 503 409 510C381.7 517 354.3 525 327 501C299.7 477 272.3 421 245.2 417C218 413 191 461 163.8 478C136.7 495 109.3 481 82 466C54.7 451 27.3 435 13.7 427L0 419Z" fill="#4f926f"></path></svg>